PathFileType	4	(X/Y/Z)	/Users/itak/Documents/Research/Walk-IL/dataset/trc/00410_00012.trc
DataRate	CameraRate	NumFrames	NumMarkers	Units	OrigDataRate	OrigDataStartFrame	OrigNumFrames
100.000000	100.000000	4	56	mm	100.000000	329	527
Frame#	Time	RPSI			LPSI			L3			STRN			T10			C7			CLAV			RBAK			LBAK			LSHO			LUPA			LAEL			LAOL			LWTS			LWPS			LFRA			LIFD			LHPS			LHTS			RSHO			RUPA			RAEL			RAOL			RWTS			RWPS			RFRA			RIFD			RHTS			RHPS			RBHD			LFHD			RFHD			LBHD			LHIP			RHIP			RASI			LASI			LKNE			LTHI			LANK			LTIP			LTOE			LMT1			LMT5			LHEE			RKNE			RTHI			RANK			RTIP			RTOE			RMT1			RMT5			RHEE			*53			*54			*55			
		X1	Y1	Z1	X2	Y2	Z2	X3	Y3	Z3	X4	Y4	Z4	X5	Y5	Z5	X6	Y6	Z6	X7	Y7	Z7	X8	Y8	Z8	X9	Y9	Z9	X10	Y10	Z10	X11	Y11	Z11	X12	Y12	Z12	X13	Y13	Z13	X14	Y14	Z14	X15	Y15	Z15	X16	Y16	Z16	X17	Y17	Z17	X18	Y18	Z18	X19	Y19	Z19	X20	Y20	Z20	X21	Y21	Z21	X22	Y22	Z22	X23	Y23	Z23	X24	Y24	Z24	X25	Y25	Z25	X26	Y26	Z26	X27	Y27	Z27	X28	Y28	Z28	X29	Y29	Z29	X30	Y30	Z30	X31	Y31	Z31	X32	Y32	Z32	X33	Y33	Z33	X34	Y34	Z34	X35	Y35	Z35	X36	Y36	Z36	X37	Y37	Z37	X38	Y38	Z38	X39	Y39	Z39	X40	Y40	Z40	X41	Y41	Z41	X42	Y42	Z42	X43	Y43	Z43	X44	Y44	Z44	X45	Y45	Z45	X46	Y46	Z46	X47	Y47	Z47	X48	Y48	Z48	X49	Y49	Z49	X50	Y50	Z50	X51	Y51	Z51	X52	Y52	Z52	X53	Y53	Z53	X54	Y54	Z54	X55	Y55	Z55	X56	Y56	Z56	

330	3.29	350.154052734375	976.8353271484375	757.5000610351562	280.6918029785156	952.0548095703125	646.5170288085938	320.03271484375	1049.067504882812	700.780029296875	529.9443969726562	1202.44482421875	587.5098266601562	313.0164489746094	1150.120239257812	699.7310180664062	338.4014282226562	1400.301147460938	675.3689575195312	481.6351623535156	1321.704833984375	611.260986328125	331.1479187011719	1254.444580078125	756.6242065429688	278.7929077148438	1364.26220703125	590.8523559570312	335.0103149414062	1377.97509765625	506.7892761230469	277.8797607421875	1261.879516601562	458.5314636230469	278.1216430664062	1064.193359375	434.1226196289062	252.0764923095703	1046.27392578125	514.071044921875	376.023681640625	848.8983764648438	446.7396240234375	308.3067932128906	838.5702514648438	400.6025085449219	287.8575439453125	960.7470092773438	419.4664001464844	362.46728515625	669.2797241210938	443.1343994140625	320.7201843261719	751.737548828125	405.3859252929688	382.4248962402344	750.90771484375	423.4262390136719	462.3638916015625	1381.041259765625	790.8958129882812	475.0126037597656	1321.179443359375	853.2656860351562	479.6319580078125	1062.033569335938	908.0267944335938	423.2778625488281	1048.934814453125	833.306640625	585.9972534179688	843.719482421875	842.4840698242188	570.1139526367188	838.5769653320312	914.2081298828125	507.6705322265625	996.041259765625	917.4071044921875	589.7659301757812	671.6228637695312	864.610107421875	614.4573364257812	740.135009765625	864.7522583007812	577.5430297851562	750.9199829101562	922.5182495117188	437.8201293945312	1595.403076171875	724.5367431640625	456.1611633300781	1579.943359375	525.4392700195312	527.6634521484375	1594.373046875	624.0491333007812	329.6030883789062	1576.09375	603.6698608398438	302.0072631835938	935.3743286132812	506.827880859375	479.2218933105469	966.8356323242188	817.3568115234375	570.0415649414062	969.0188598632812	705.20947265625	421.7149353027344	942.3319091796875	487.8474426269531	493.2731628417969	466.8896484375	491.672607421875	445.7225036621094	594.3486938476562	489.4362182617188	215.4732360839844	174.1168060302734	687.53271484375	348.6878967285156	305.2773132324219	580.9386596679688	388.3313293457031	45.92536163330078	668.4732666015625	347.6314086914062	90.78842926025391	721.99609375	293.0646362304688	91.31971740722656	631.941650390625	215.7379150390625	197.5099487304688	750.24853515625	563.845458984375	477.740234375	786.1536865234375	571.6569213867188	742.3836669921875	786.6478881835938	505.7264709472656	55.01226806640625	832.3562622070312	568.916259765625	348.6327209472656	779.4976196289062	627.8125610351562	36.59981918334961	686.6510620117188	546.3256225585938	40.12726593017578	700.5791625976562	581.0238647460938	43.08126831054688	796.2513427734375	416.3205871582031	42.01015472412109	825.2481079101562	nan	nan	nan	nan	nan	nan	nan	nan	nan	
331	3.3	359.6736145019531	977.8994140625	754.73681640625	288.3994140625	953.158203125	644.9843139648438	328.919921875	1050.017578125	699.0067138671875	537.5816040039062	1203.051513671875	581.8319091796875	322.0487365722656	1151.186157226562	698.0145263671875	348.1459045410156	1401.133666992188	672.8463745117188	489.7795715332031	1322.472290039062	606.2010498046875	342.0565185546875	1255.590576171875	754.5704345703125	286.7522277832031	1365.166381835938	589.4986572265625	341.365478515625	1378.574584960938	504.40625	282.74560546875	1262.68896484375	457.4960632324219	281.2156982421875	1065.007690429688	433.7642517089844	256.8092956542969	1047.467407226562	514.3607788085938	375.7728271484375	847.7046508789062	445.8089904785156	306.9231567382812	838.411865234375	401.2280883789062	289.1481323242188	961.0421752929688	419.6179504394531	358.0897216796875	668.305908203125	444.3613891601562	317.6873779296875	751.3941650390625	406.3746032714844	379.5956115722656	749.34765625	423.278564453125	474.0033874511719	1382.254516601562	785.9987182617188	488.1495056152344	1322.488525390625	848.2220458984375	496.1615600585938	1063.394897460938	903.1725463867188	437.9718322753906	1049.666381835938	829.7365112304688	604.9556274414062	847.4308471679688	833.236328125	591.0707397460938	841.6163330078125	905.3765869140625	525.5709838867188	997.6917114257812	911.3011474609375	612.9476318359375	675.3405151367188	854.572509765625	636.2113647460938	744.3954467773438	854.2666625976562	600.6903686523438	754.1514892578125	913.1052856445312	448.5271301269531	1596.197387695312	720.1715087890625	463.8453674316406	1580.558349609375	520.6712646484375	536.81982421875	1594.791015625	618.2184448242188	338.4996643066406	1577.146606445312	600.788818359375	307.185302734375	937.1656494140625	505.5802612304688	489.8968505859375	967.335693359375	812.5595092773438	579.1293334960938	969.1043701171875	699.4884643554688	427.2932739257812	943.798583984375	484.494873046875	505.8030700683594	470.6765747070312	482.6717224121094	455.4810791015625	597.5711059570312	482.2164916992188	242.0980834960938	165.1606750488281	680.535888671875	368.2564086914062	303.1460571289062	573.0218505859375	420.8136901855469	46.54705047607422	653.9149169921875	379.1577453613281	87.54305267333984	709.7867431640625	322.3849182128906	87.75575256347656	620.9999389648438	242.9310455322266	187.0604400634766	743.8338623046875	566.2639770507812	477.2586364746094	785.2037963867188	579.0489501953125	742.0460815429688	782.0250244140625	505.6939086914062	55.27307510375977	832.0590209960938	570.2089233398438	348.1682434082031	778.7764282226562	628.0365600585938	36.44315338134766	686.518798828125	546.3140258789062	39.88119506835938	700.3953857421875	581.0127563476562	43.26641464233398	796.00244140625	416.2098999023438	42.00983810424805	824.936279296875	nan	nan	nan	nan	nan	nan	nan	nan	nan	
332	3.31	369.2117004394531	978.7432861328125	751.9329833984375	296.155517578125	953.9968872070312	643.453857421875	337.8252868652344	1050.718017578125	697.1786499023438	545.0941772460938	1203.440185546875	576.0769653320312	331.0259704589844	1152.012451171875	696.2152099609375	357.8974914550781	1401.727294921875	670.23583984375	497.8327941894531	1323.01123046875	601.0584106445312	352.9094848632812	1256.499633789062	752.3712158203125	294.6665344238281	1365.812133789062	588.0689086914062	347.6495361328125	1378.966552734375	501.9705200195312	287.5259399414062	1263.30908203125	456.4603881835938	284.0985412597656	1065.640625	433.4300537109375	261.3579711914062	1048.48828125	514.6371459960938	375.6278076171875	846.6560668945312	444.7821044921875	305.6672058105469	838.27783203125	401.8721618652344	290.3532104492188	961.28662109375	419.7608337402344	354.2945556640625	667.5109252929688	445.4958190917969	315.0139465332031	751.1327514648438	407.2569580078125	377.1215209960938	748.0242919921875	423.0196838378906	485.5024108886719	1383.225463867188	780.9570922851562	501.0938415527344	1323.55712890625	843.0123901367188	512.39208984375	1064.578002929688	898.1749267578125	452.4651489257812	1050.17822265625	825.9102172851562	623.6854248046875	851.1983032226562	823.72705078125	611.7982177734375	844.6471557617188	896.2029418945312	543.1845092773438	999.2071533203125	904.98046875	636.0618286132812	679.2064208984375	843.8980712890625	657.7869262695312	748.7985229492188	843.3189086914062	623.6898803710938	757.4277954101562	903.1669921875	459.1103515625	1596.780883789062	715.6553955078125	471.4327087402344	1580.915161132812	515.800537109375	545.863037109375	1594.963989257812	612.2733154296875	347.323974609375	1577.983154296875	597.78662109375	312.22900390625	938.8909912109375	504.4493713378906	500.8426513671875	967.5059204101562	807.5213012695312	588.12353515625	968.9935913085938	693.6299438476562	432.8375244140625	945.0415649414062	481.0611572265625	517.8024291992188	474.2791137695312	473.5642395019531	464.8601379394531	600.64892578125	474.8654479980469	269.3345031738281	155.7249755859375	672.605224609375	387.8139038085938	300.5618896484375	564.5839233398438	453.088623046875	47.08708953857422	638.0096435546875	410.9012145996094	84.07447052001953	696.309814453125	351.7127990722656	83.91562652587891	608.9546508789062	270.9916381835938	175.9936218261719	736.4902954101562	568.66064453125	476.7817077636719	784.4061889648438	586.3949584960938	741.620849609375	777.3543090820312	505.6643371582031	55.51592636108398	831.7913208007812	571.4876098632812	347.7304077148438	778.22119140625	628.2465209960938	36.38628005981445	686.4249267578125	546.3005981445312	39.65921401977539	700.232421875	581.0111694335938	43.43534851074219	795.7693481445312	416.1480712890625	42.06794357299805	824.6795043945312	nan	nan	nan	nan	nan	nan	nan	nan	nan	
333	3.32	378.7631225585938	979.3641357421875	749.0746459960938	303.9720153808594	954.5609741210938	641.90185546875	346.7318115234375	1051.153930664062	695.2938842773438	552.4859619140625	1203.59765625	570.2379760742188	339.9703979492188	1152.58740234375	694.3443603515625	367.6316528320312	1402.08203125	667.5285034179688	505.8001708984375	1323.30078125	595.8296508789062	363.7171630859375	1257.150268554688	750.0245971679688	302.5576171875	1366.183837890625	586.5562744140625	353.8721313476562	1379.136352539062	499.472412109375	292.244140625	1263.728881835938	455.4140319824219	286.8027648925781	1066.080322265625	433.1194152832031	265.7610778808594	1049.328735351562	514.8947143554688	375.6255798339844	845.7308349609375	443.6262817382812	304.5575256347656	838.1266479492188	402.52880859375	291.5016784667969	961.46923828125	419.8858947753906	351.1129455566406	666.8347778320312	446.5226135253906	312.6942443847656	750.8900756835938	408.0890502929688	375.0286865234375	746.876953125	422.6238708496094	496.8677062988281	1383.93310546875	775.7711791992188	513.8425903320312	1324.367065429688	837.6463623046875	528.3214721679688	1065.558959960938	893.0411376953125	466.7216186523438	1050.454345703125	821.8311767578125	642.16064453125	855.0140991210938	813.9854125976562	632.257568359375	847.65283203125	886.71142578125	560.5016479492188	1000.563781738281	898.4664916992188	659.0853271484375	683.2279663085938	832.59765625	679.1505737304688	753.344482421875	831.9395141601562	646.479736328125	760.7376708984375	892.723876953125	469.5556030273438	1597.131958007812	710.9759521484375	478.9183349609375	1581.009399414062	510.8315734863281	554.7885131835938	1594.8837890625	606.2190551757812	356.0606079101562	1578.584228515625	594.6571655273438	317.2230834960938	940.5181884765625	503.3514709472656	511.9300231933594	967.394775390625	802.2922973632812	597.0266723632812	968.6786499023438	687.660888671875	438.3712158203125	946.0393676757812	477.5498352050781	529.2724609375	477.6496276855469	464.3980712890625	473.8799438476562	603.5299072265625	467.4430541992188	297.1595458984375	145.9551544189453	663.6962890625	407.3012390136719	297.5870971679688	555.6135864257812	484.975830078125	47.58404159545898	620.741943359375	442.7343139648438	80.48461151123047	681.496826171875	380.9470520019531	79.935546875	595.76708984375	299.8643493652344	164.4908447265625	728.1575317382812	571.0518798828125	476.31103515625	783.72607421875	593.6910400390625	741.1060180664062	772.643310546875	505.6385498046875	55.74264144897461	831.5505981445312	572.757568359375	347.3109130859375	777.801025390625	628.4459228515625	36.41836547851562	686.3654174804688	546.2854614257812	39.45548248291016	700.0827026367188	581.0162963867188	43.58338928222656	795.5514526367188	416.1119995117188	42.19108581542969	824.4683227539062	nan	nan	nan	nan	nan	nan	nan	nan	nan	
